<?xml version="1.0" encoding="UTF-8"?>
<svg width="227px" height="55px" viewBox="0 0 227 55" version="1.1" xmlns="http://www.w3.org/2000/svg" xmlns:xlink="http://www.w3.org/1999/xlink">
    <!-- Generator: Sketch 45 (43475) - http://www.bohemiancoding.com/sketch -->
    <title>Mac App Store</title>
    <desc>Created with Sketch.</desc>
    <defs></defs>
    <g id="Page-1" stroke="none" stroke-width="1" fill="none" fill-rule="evenodd">
        <g id="Mac-App-Store" fill-rule="nonzero">
            <path d="M220.494042,54.984875 L6.50595758,54.984875 C2.91935758,54.984875 0,52.074 0,48.4935 L0,6.499625 C0,2.915 2.91935758,0 6.50595758,0 L220.494042,0 C224.076515,0 227,2.915 227,6.499625 L227,48.4935 C227.001376,52.074 224.077891,54.984875 220.494042,54.984875 L220.494042,54.984875 Z" id="Shape" fill="#5A4C8F"></path>
            <g id="Group" transform="translate(16.509091, 8.250000)" fill="#FFFFFF">
                <path d="M25.4473879,18.924125 C25.4061152,14.4925 29.1550545,12.335125 29.3256485,12.236125 C27.2028545,9.205625 23.9120424,8.790375 22.7577818,8.75875 C19.9925091,8.4755 17.3125333,10.3785 15.9051333,10.3785 C14.4702182,10.3785 12.3006485,8.787625 9.96598788,8.83575 C6.95995758,8.881125 4.14653333,10.583375 2.60293333,13.228875 C-0.580569697,18.623 1.79398788,26.552625 4.84266667,30.91 C6.36838182,33.048125 8.15136364,35.429625 10.4846485,35.34575 C12.7684061,35.255 13.62,33.922625 16.3770182,33.922625 C19.1065212,33.922625 19.9072121,35.34575 22.2872727,35.292125 C24.7361212,35.255 26.281097,33.1485 27.7531576,30.9925 C29.5168788,28.545 30.2240182,26.136 30.2529091,26.010875 C30.1951273,25.99025 25.4955394,24.237125 25.4473879,18.924125 Z" id="Shape"></path>
                <path d="M20.9514121,5.891875 C22.1785879,4.387625 23.0178,2.344375 22.785297,0.2695 C21.0078182,0.345125 18.7845939,1.47125 17.5051394,2.9425 C16.3728909,4.236375 15.3617091,6.36075 15.623103,8.35725 C17.6193273,8.503 19.6692061,7.371375 20.9514121,5.891875 Z" id="Shape"></path>
            </g>
            <g id="Group" transform="translate(57.781818, 24.750000)" fill="#FFFFFF">
                <path d="M18.7832182,18.557 L16.0867333,18.557 L15.7262848,11.319 C15.5543152,8.050625 15.4786485,5.619625 15.4951576,4.030125 L15.4181152,4.030125 C14.8705636,6.0665 14.1936909,8.24725 13.3888727,10.575125 L10.6923879,18.403 L8.58610303,18.403 L6.12074545,10.703 C5.38471515,8.375125 4.78488485,6.150375 4.3226303,4.02875 L4.27035152,4.02875 C4.18505455,6.628875 4.08187273,9.1025 3.96218182,11.446875 L3.5508303,18.555625 L0.957527273,18.555625 L2.11316364,1.255375 L5.68325455,1.255375 L8.17475152,8.7505 C8.79109091,10.5985 9.33038788,12.585375 9.79264242,14.707 L9.86968485,14.707 C10.4172364,12.500125 10.9991818,10.514625 11.6155212,8.7505 L14.2102,1.255375 L17.7802909,1.255375 L18.7832182,18.557 Z" id="Shape"></path>
                <path d="M30.9311576,18.557 L28.4396606,18.557 L28.2346727,17.120125 L28.1576303,17.120125 C27.3005333,18.266875 26.0857394,18.838875 24.510497,18.838875 C23.3287212,18.838875 22.3794485,18.4635 21.6599273,17.711375 C21.0091939,17.026625 20.6845152,16.181 20.6845152,15.170375 C20.6845152,13.64825 21.3214909,12.48225 22.5981939,11.67925 C23.8735212,10.8735 25.6661333,10.481625 27.9787818,10.498125 L27.9787818,10.267125 C27.9787818,8.624 27.1161818,7.8045 25.3909818,7.8045 C24.1596788,7.8045 23.0755818,8.111125 22.1359394,8.7285 L21.570503,6.90525 C22.7330182,6.186125 24.1610545,5.828625 25.8532364,5.828625 C29.1179091,5.828625 30.7509333,7.547375 30.7509333,10.987625 L30.7509333,15.582875 C30.7509333,16.83 30.8114667,17.821375 30.9311576,18.557 Z M28.0544485,14.271125 L28.0544485,12.346125 C24.9892606,12.29525 23.4580424,13.132625 23.4580424,14.862375 C23.4580424,15.51275 23.6355152,16.000875 23.9945879,16.325375 C24.3522848,16.649875 24.8021576,16.812125 25.3469576,16.812125 C25.9605455,16.812125 26.5259818,16.621 27.0460182,16.234625 C27.5646788,15.851 27.8838545,15.35875 28.0035455,14.760625 C28.0365636,14.623125 28.0544485,14.4595 28.0544485,14.271125 Z" id="Shape"></path>
                <path d="M42.6168424,6.41575 L42.0775455,8.520875 C41.3759091,8.179875 40.5710909,8.008 39.6630909,8.008 C38.4469212,8.008 37.4852667,8.413625 36.774,9.227625 C36.0627333,10.041625 35.7091636,11.072875 35.7091636,12.321375 C35.7091636,13.63725 36.0819939,14.68225 36.8262788,15.45225 C37.5705636,16.220875 38.5170848,16.60725 39.6630909,16.60725 C40.5188121,16.60725 41.3580242,16.435375 42.1807273,16.094375 L42.5659394,18.173375 C41.6579394,18.601 40.5119333,18.8155 39.1251697,18.8155 C37.2252485,18.8155 35.7105394,18.238 34.5796667,17.083 C33.4487939,15.928 32.8847333,14.383875 32.8847333,12.450625 C32.8847333,10.517375 33.4928182,8.92925 34.7089879,7.689 C35.9237818,6.44875 37.5595576,5.82725 39.6135636,5.82725 C40.7760788,5.82725 41.7776303,6.023875 42.6168424,6.41575 Z" id="Shape"></path>
                <path d="M63.1087515,18.557 L60.1563758,18.557 L58.5371091,13.476375 L52.9143879,13.476375 L51.3735394,18.557 L48.4954545,18.557 L54.0686485,1.25675 L57.5094182,1.25675 L63.1087515,18.557 Z M58.0500909,11.3465 L56.5862848,6.826875 C56.4322,6.364875 56.1405394,5.28 55.7126788,3.568125 L55.6604,3.568125 C55.4884303,4.305125 55.2146545,5.39 54.8390727,6.826875 L53.4014061,11.3465 L58.0500909,11.3465 Z" id="Shape"></path>
                <path d="M77.4372667,12.166 C77.4372667,14.290375 76.8649515,15.9665 75.7175697,17.1985 C74.6912545,18.294375 73.4145515,18.838875 71.8915879,18.838875 C70.2475576,18.838875 69.0671576,18.250375 68.3476364,17.06925 L68.2967333,17.06925 L68.2967333,23.640375 L65.5232061,23.640375 L65.5232061,10.18875 C65.5232061,8.853625 65.4888121,7.486875 65.4186485,6.083 L67.8578667,6.083 L68.0133273,8.06025 L68.0642303,8.06025 C68.9887394,6.5725 70.3906364,5.828625 72.2754242,5.828625 C73.7474848,5.828625 74.9760364,6.408875 75.9624545,7.574875 C76.9461212,8.73675 77.4372667,10.267125 77.4372667,12.166 Z M74.6128364,12.2705 C74.6128364,11.053625 74.3390606,10.055375 73.7901333,9.26475 C73.190303,8.44525 72.3868606,8.034125 71.3770545,8.034125 C70.6919273,8.034125 70.0714606,8.259625 69.5142788,8.713375 C68.957097,9.167125 68.5925212,9.761125 68.423303,10.49675 C68.3380061,10.8405 68.2939818,11.122375 68.2939818,11.345125 L68.2939818,13.424125 C68.2939818,14.331625 68.5705091,15.0975 69.1290667,15.720375 C69.6848727,16.346 70.4085212,16.658125 71.2972606,16.658125 C72.3428364,16.658125 73.1545333,16.25525 73.7364788,15.45225 C74.3225515,14.6465 74.6128364,13.586375 74.6128364,12.2705 Z" id="Shape"></path>
                <path d="M91.7946727,12.166 C91.7946727,14.290375 91.2196061,15.9665 90.0749758,17.1985 C89.0459091,18.294375 87.7719576,18.838875 86.2462424,18.838875 C84.6049636,18.838875 83.4218121,18.250375 82.7050424,17.06925 L82.6513879,17.06925 L82.6513879,23.640375 L79.8778606,23.640375 L79.8778606,10.18875 C79.8778606,8.853625 79.8434667,7.486875 79.7760545,6.083 L82.2152727,6.083 L82.3679818,8.06025 L82.4188848,8.06025 C83.3433939,6.5725 84.7480424,5.828625 86.6314545,5.828625 C88.1035152,5.828625 89.3320667,6.408875 90.3157333,7.574875 C91.3021515,8.73675 91.7946727,10.267125 91.7946727,12.166 Z M88.9702424,12.2705 C88.9702424,11.053625 88.6964667,10.055375 88.1475394,9.26475 C87.5477091,8.44525 86.7428909,8.034125 85.7317091,8.034125 C85.0465818,8.034125 84.4261152,8.259625 83.8689333,8.713375 C83.3117515,9.167125 82.9499273,9.761125 82.7779576,10.49675 C82.6926606,10.8405 82.6486364,11.122375 82.6486364,11.345125 L82.6486364,13.424125 C82.6486364,14.331625 82.9279152,15.0975 83.4837212,15.720375 C84.0395273,16.346 84.7631758,16.658125 85.6546667,16.658125 C86.6974909,16.658125 87.5119394,16.25525 88.0938848,15.45225 C88.6772061,14.6465 88.9702424,13.586375 88.9702424,12.2705 Z" id="Shape"></path>
                <path d="M107.844261,13.707375 C107.844261,15.178625 107.331103,16.37625 106.307539,17.30025 C105.179418,18.3095 103.606927,18.8155 101.591442,18.8155 C99.7286667,18.8155 98.2359697,18.45525 97.1064727,17.736125 L97.7489515,15.426125 C98.9637455,16.16175 100.300982,16.53025 101.755158,16.53025 C102.800733,16.53025 103.615182,16.2965 104.197127,15.8235 C104.779073,15.3505 105.070733,14.722125 105.070733,13.932875 C105.070733,13.231625 104.831352,12.639 104.351212,12.1605 C103.872448,11.67925 103.077261,11.23375 101.962897,10.822625 C98.9348545,9.692375 97.4187697,8.03825 97.4187697,5.86025 C97.4187697,4.437125 97.9484364,3.2725 99.0091455,2.365 C100.069855,1.456125 101.484133,1.002375 103.246479,1.002375 C104.823097,1.002375 106.132818,1.276 107.177018,1.824625 L106.483636,4.08375 C105.505473,3.553 104.400739,3.287625 103.170812,3.287625 C102.192648,3.287625 101.431855,3.52825 100.884303,4.00675 C100.422048,4.433 100.190921,4.956875 100.190921,5.5715 C100.190921,6.25625 100.456442,6.82 100.986109,7.2655 C101.448364,7.676625 102.2862,8.122125 103.503745,8.600625 C104.992315,9.200125 106.088794,9.9 106.79043,10.70575 C107.494818,11.507375 107.844261,12.50975 107.844261,13.707375 Z" id="Shape"></path>
                <path d="M117.012309,8.162 L113.954,8.162 L113.954,14.22025 C113.954,15.758875 114.494673,16.53025 115.574642,16.53025 C116.068539,16.53025 116.479891,16.487625 116.805945,16.401 L116.884364,18.506125 C116.336812,18.712375 115.615915,18.8155 114.727176,18.8155 C113.630697,18.8155 112.776352,18.48275 112.158636,17.813125 C111.543673,17.147625 111.234127,16.02425 111.234127,14.45125 L111.234127,8.162 L109.412624,8.162 L109.412624,6.083 L111.234127,6.083 L111.234127,3.799125 L113.956752,2.976875 L113.956752,6.081625 L117.015061,6.081625 L117.015061,8.162 L117.012309,8.162 Z" id="Shape"></path>
                <path d="M130.801527,12.216875 C130.801527,14.135 130.253976,15.708 129.160248,16.941375 C128.012867,18.209125 126.489903,18.84025 124.58723,18.84025 C122.754721,18.84025 121.295042,18.233875 120.20957,17.01975 C119.121345,15.802875 118.577921,14.2725 118.577921,12.4245 C118.577921,10.49125 119.136479,8.908625 120.260473,7.676625 C121.380339,6.444625 122.893673,5.828625 124.793594,5.828625 C126.626103,5.828625 128.095412,6.435 129.211152,7.649125 C130.271861,8.83025 130.801527,10.352375 130.801527,12.216875 Z M127.926194,12.307625 C127.926194,11.158125 127.675806,10.1695 127.181909,9.348625 C126.598588,8.35175 125.769006,7.855375 124.690412,7.855375 C123.574673,7.855375 122.728582,8.35175 122.145261,9.348625 C121.648612,10.170875 121.400976,11.174625 121.400976,12.3585 C121.400976,13.508 121.648612,14.496625 122.145261,15.3175 C122.745091,16.314375 123.585679,16.81075 124.662897,16.81075 C125.723606,16.81075 126.554564,16.306125 127.154394,15.29275 C127.668927,14.454 127.926194,13.457125 127.926194,12.307625 Z" id="Shape"></path>
                <path d="M139.816867,8.520875 C139.543091,8.47 139.252806,8.44525 138.943261,8.44525 C137.967848,8.44525 137.212558,8.81375 136.682891,9.546625 C136.220636,10.19975 135.989509,11.020625 135.989509,12.012 L135.989509,18.557 L133.215982,18.557 L133.240745,10.011375 C133.240745,8.57175 133.206352,7.264125 133.138939,6.083 L135.552018,6.083 L135.656576,8.47 L135.732242,8.47 C136.025279,7.64775 136.487533,6.9905 137.119006,6.49275 C137.736721,6.05 138.403964,5.82725 139.123485,5.82725 C139.382127,5.82725 139.611879,5.84375 139.816867,5.878125 L139.816867,8.520875 Z" id="Shape"></path>
                <path d="M152.220697,11.730125 C152.220697,12.2265 152.186303,12.645875 152.118891,12.986875 L143.796933,12.986875 C143.831327,14.218875 144.234424,15.159375 145.006224,15.8125 C145.707861,16.39275 146.613109,16.685625 147.728848,16.685625 C148.960152,16.685625 150.08277,16.48625 151.092576,16.094375 L151.527315,18.019375 C150.348291,18.53225 148.950521,18.788 147.340885,18.788 C145.40657,18.788 143.887733,18.2215 142.784376,17.083 C141.681018,15.9445 141.126588,14.416875 141.126588,12.5015 C141.126588,10.619125 141.639745,9.053 142.668812,7.8045 C143.74603,6.469375 145.202958,5.801125 147.035467,5.801125 C148.833582,5.801125 150.19283,6.469375 151.117339,7.8045 C151.851994,8.864625 152.220697,10.17225 152.220697,11.730125 Z M149.576491,11.011 C149.593,10.18875 149.412776,9.480625 149.035818,8.881125 C148.557055,8.10975 147.821024,7.726125 146.827727,7.726125 C145.919727,7.726125 145.183697,8.1015 144.619636,8.853625 C144.157382,9.455875 143.883606,10.17225 143.796933,11.009625 L149.576491,11.009625 L149.576491,11.011 Z" id="Shape"></path>
            </g>
            <g id="Group" transform="translate(59.157576, 8.250000)" fill="#FFFFFF">
                <path d="M8.19951515,5.512375 C8.19951515,7.13075 7.71387273,8.349 6.74396364,9.167125 C5.84559394,9.922 4.56889091,10.300125 2.9152303,10.300125 C2.09527879,10.300125 1.39364242,10.264375 0.806193939,10.192875 L0.806193939,1.35025 C1.57249091,1.2265 2.39794545,1.16325 3.28943636,1.16325 C4.86467879,1.16325 6.05195758,1.505625 6.85264848,2.190375 C7.74964242,2.9645 8.19951515,4.071375 8.19951515,5.512375 Z M6.67792727,5.55225 C6.67792727,4.503125 6.40002424,3.69875 5.84421818,3.13775 C5.28841212,2.578125 4.47671515,2.297625 3.40775152,2.297625 C2.95375152,2.297625 2.56716364,2.327875 2.24661212,2.391125 L2.24661212,9.1135 C2.42408485,9.141 2.74876364,9.153375 3.22064848,9.153375 C4.32400606,9.153375 5.1756,8.84675 5.7754303,8.2335 C6.37526061,7.62025 6.67792727,6.7265 6.67792727,5.55225 Z" id="Shape"></path>
                <path d="M16.258703,6.925875 C16.258703,7.92275 15.9739212,8.7395 15.4043576,9.38025 C14.8072788,10.038875 14.0162182,10.3675 13.0284242,10.3675 C12.0764,10.3675 11.3183576,10.052625 10.7529212,9.420125 C10.1888606,8.789 9.9068303,7.992875 9.9068303,7.033125 C9.9068303,6.029375 10.1971152,5.20575 10.7804364,4.566375 C11.3637576,3.927 12.1479394,3.606625 13.1357333,3.606625 C14.0877576,3.606625 14.8526788,3.9215 15.4318727,4.552625 C15.9821758,5.165875 16.258703,5.957875 16.258703,6.925875 Z M14.7632545,6.972625 C14.7632545,6.3745 14.6339333,5.861625 14.3766667,5.434 C14.074,4.917 13.6433879,4.6585 13.0834545,4.6585 C12.5042606,4.6585 12.0640182,4.917 11.7613515,5.434 C11.5027091,5.861625 11.3747636,6.38275 11.3747636,6.99875 C11.3747636,7.596875 11.5040848,8.10975 11.7613515,8.537375 C12.0736485,9.054375 12.5083879,9.312875 13.069697,9.312875 C13.62,9.312875 14.0519879,9.05025 14.3629091,8.523625 C14.6311818,8.08775 14.7632545,7.57075 14.7632545,6.972625 Z" id="Shape"></path>
                <path d="M27.0680303,3.738625 L25.0387879,10.220375 L23.7180606,10.220375 L22.8774727,7.40575 C22.6642303,6.703125 22.4908848,6.004625 22.3560606,5.311625 L22.3299212,5.311625 C22.2047273,6.023875 22.0313818,6.721 21.8085091,7.40575 L20.9156424,10.220375 L19.5797818,10.220375 L17.6716061,3.738625 L19.153297,3.738625 L19.8865758,6.82 C20.0640485,7.54875 20.2098788,8.243125 20.3268182,8.900375 L20.3529576,8.900375 C20.4602667,8.358625 20.6377394,7.668375 20.8881273,6.83375 L21.8085091,3.74 L22.9834061,3.74 L23.8652667,6.76775 C24.0785091,7.506125 24.2518545,8.217 24.385303,8.90175 L24.4252,8.90175 C24.5228788,8.234875 24.6700848,7.524 24.8654424,6.76775 L25.6523758,3.74 L27.0680303,3.74 L27.0680303,3.738625 Z" id="Shape"></path>
                <path d="M34.5411455,10.220375 L33.1007273,10.220375 L33.1007273,6.507875 C33.1007273,5.363875 32.6659879,4.791875 31.7937576,4.791875 C31.365897,4.791875 31.0205818,4.948625 30.7523091,5.2635 C30.4867879,5.578375 30.3519636,5.949625 30.3519636,6.3745 L30.3519636,10.219 L28.9101697,10.219 L28.9101697,5.59075 C28.9101697,5.0215 28.8922848,4.404125 28.8578909,3.735875 L30.1249636,3.735875 L30.1923758,4.74925 L30.2322727,4.74925 C30.4001152,4.434375 30.650503,4.1745 30.9793091,3.966875 C31.3700242,3.724875 31.8075152,3.6025 32.2862788,3.6025 C32.8916121,3.6025 33.3951394,3.79775 33.7954848,4.189625 C34.2935091,4.6695 34.5425212,5.385875 34.5425212,6.337375 L34.5425212,10.220375 L34.5411455,10.220375 Z" id="Shape"></path>
                <polygon id="Shape" points="38.5184606 10.220375 37.0766667 10.220375 37.0766667 0.7645 38.5184606 0.7645"></polygon>
                <path d="M47.0055091,6.925875 C47.0055091,7.92275 46.7207273,8.7395 46.1511636,9.38025 C45.5540848,10.038875 44.7630242,10.3675 43.7752303,10.3675 C42.8232061,10.3675 42.0651636,10.052625 41.4997273,9.420125 C40.9356667,8.789 40.6536364,7.992875 40.6536364,7.033125 C40.6536364,6.029375 40.9439212,5.20575 41.5272424,4.566375 C42.1105636,3.927 42.8947455,3.606625 43.8825394,3.606625 C44.8345636,3.606625 45.5994848,3.9215 46.1786788,4.552625 C46.7289818,5.165875 47.0055091,5.957875 47.0055091,6.925875 Z M45.5100606,6.972625 C45.5100606,6.3745 45.3807394,5.861625 45.1234727,5.434 C44.8208061,4.917 44.3901939,4.6585 43.8302606,4.6585 C43.2510667,4.6585 42.8108242,4.917 42.5081576,5.434 C42.2495152,5.861625 42.1215697,6.38275 42.1215697,6.99875 C42.1215697,7.596875 42.2508909,8.10975 42.5081576,8.537375 C42.8204545,9.054375 43.2551939,9.312875 43.816503,9.312875 C44.3668061,9.312875 44.7987939,9.05025 45.1097152,8.523625 C45.3766121,8.08775 45.5100606,7.57075 45.5100606,6.972625 Z" id="Shape"></path>
                <path d="M53.9833515,10.220375 L52.6887636,10.220375 L52.5828303,9.47375 L52.5429333,9.47375 C52.0985636,10.069125 51.4670909,10.3675 50.6485152,10.3675 C50.0349273,10.3675 49.5396545,10.170875 49.1668242,9.780375 C48.8283879,9.425625 48.6605455,8.98425 48.6605455,8.460375 C48.6605455,7.668375 48.9907273,7.06475 49.6552182,6.64675 C50.3169576,6.22875 51.2497212,6.023875 52.4507576,6.0335 L52.4507576,5.9125 C52.4507576,5.058625 52.0022606,4.632375 51.1052667,4.632375 C50.4655394,4.632375 49.9014788,4.79325 49.4144606,5.11225 L49.1214242,4.16625 C49.7240061,3.793625 50.4682909,3.606625 51.3460242,3.606625 C53.0423333,3.606625 53.8911758,4.500375 53.8911758,6.287875 L53.8911758,8.674875 C53.8898,9.3225 53.9214424,9.838125 53.9833515,10.220375 Z M52.487903,7.992875 L52.487903,6.99325 C50.8961515,6.96575 50.1009636,7.401625 50.1009636,8.2995 C50.1009636,8.63775 50.1931394,8.89075 50.3788667,9.059875 C50.5645939,9.229 50.7998485,9.312875 51.0818788,9.312875 C51.3996788,9.312875 51.6940909,9.2125 51.9651152,9.013125 C52.2361394,8.81375 52.4012303,8.558 52.4631394,8.245875 C52.4796485,8.17575 52.487903,8.0905 52.487903,7.992875 Z" id="Shape"></path>
                <path d="M62.1773636,10.220375 L60.8965333,10.220375 L60.8291212,9.1795 L60.7892242,9.1795 C60.3806242,9.9715 59.6858667,10.3675 58.707703,10.3675 C57.924897,10.3675 57.2755394,10.060875 56.7596303,9.447625 C56.2437212,8.834375 55.9864545,8.03825 55.9864545,7.060625 C55.9864545,6.0115 56.2657333,5.16175 56.8256667,4.51275 C57.3690909,3.90775 58.0363333,3.60525 58.8273939,3.60525 C59.6996242,3.60525 60.3090848,3.898125 60.6557758,4.48525 L60.6832909,4.48525 L60.6832909,0.7645 L62.1250848,0.7645 L62.1250848,8.474125 C62.1250848,9.10525 62.1429697,9.686875 62.1773636,10.220375 Z M60.6832909,7.486875 L60.6832909,6.406125 C60.6832909,6.219125 60.6695333,6.067875 60.6433939,5.952375 C60.5622242,5.605875 60.387503,5.314375 60.1206061,5.07925 C59.8523333,4.844125 59.5304061,4.725875 59.1562,4.725875 C58.6196545,4.725875 58.1986727,4.939 57.8891273,5.366625 C57.5809576,5.79425 57.4268727,6.340125 57.4268727,7.007 C57.4268727,7.64775 57.5740788,8.1675 57.8698667,8.567625 C58.1821636,8.993875 58.6017697,9.207 59.1286848,9.207 C59.6019455,9.207 59.9816545,9.029625 60.2678121,8.6735 C60.5457152,8.344875 60.6832909,7.948875 60.6832909,7.486875 Z" id="Shape"></path>
                <path d="M74.5082788,6.925875 C74.5082788,7.92275 74.223497,8.7395 73.6539333,9.38025 C73.0568545,10.038875 72.2657939,10.3675 71.278,10.3675 C70.3259758,10.3675 69.5679333,10.052625 69.002497,9.420125 C68.4384364,8.789 68.1564061,7.992875 68.1564061,7.033125 C68.1564061,6.029375 68.4466909,5.20575 69.0300121,4.566375 C69.6133333,3.927 70.3975152,3.606625 71.3853091,3.606625 C72.3373333,3.606625 73.1022545,3.9215 73.6814485,4.552625 C74.2317515,5.165875 74.5082788,5.957875 74.5082788,6.925875 Z M73.0128303,6.972625 C73.0128303,6.3745 72.8835091,5.861625 72.6262424,5.434 C72.3235758,4.917 71.8929636,4.6585 71.3330303,4.6585 C70.7538364,4.6585 70.3135939,4.917 70.0109273,5.434 C69.7522848,5.861625 69.6243394,6.38275 69.6243394,6.99875 C69.6243394,7.596875 69.7536606,8.10975 70.0109273,8.537375 C70.3232242,9.054375 70.7579636,9.312875 71.3192727,9.312875 C71.8695758,9.312875 72.3015636,9.05025 72.6124848,8.523625 C72.8807576,8.08775 73.0128303,7.57075 73.0128303,6.972625 Z" id="Shape"></path>
                <path d="M82.2606727,10.220375 L80.8188788,10.220375 L80.8188788,6.507875 C80.8188788,5.363875 80.3841394,4.791875 79.5119091,4.791875 C79.0840485,4.791875 78.7387333,4.948625 78.4704606,5.2635 C78.2049394,5.578375 78.0701152,5.949625 78.0701152,6.3745 L78.0701152,10.219 L76.6283212,10.219 L76.6283212,5.59075 C76.6283212,5.0215 76.6104364,4.404125 76.5760424,3.735875 L77.8431152,3.735875 L77.9105273,4.74925 L77.9504242,4.74925 C78.1182667,4.434375 78.3686545,4.1745 78.6974606,3.966875 C79.0881758,3.724875 79.5256667,3.6025 80.0044303,3.6025 C80.6097636,3.6025 81.1132909,3.79775 81.5136364,4.189625 C82.0116606,4.6695 82.2606727,5.385875 82.2606727,6.337375 L82.2606727,10.220375 L82.2606727,10.220375 Z" id="Shape"></path>
                <path d="M91.9638909,4.818 L90.3762667,4.818 L90.3762667,7.96675 C90.3762667,8.767 90.6569212,9.167125 91.2168545,9.167125 C91.475497,9.167125 91.6887394,9.145125 91.8579576,9.09975 L91.8964788,10.192875 C91.611697,10.300125 91.2374909,10.35375 90.7766121,10.35375 C90.2070485,10.35375 89.7626788,10.1805 89.4421273,9.834 C89.1215758,9.4875 88.9606121,8.9045 88.9606121,8.086375 L88.9606121,4.818 L88.0140909,4.818 L88.0140909,3.738625 L88.9606121,3.738625 L88.9606121,2.550625 L90.3748909,2.124375 L90.3748909,3.73725 L91.9625152,3.73725 L91.9625152,4.818 L91.9638909,4.818 Z" id="Shape"></path>
                <path d="M99.6626303,10.220375 L98.2208364,10.220375 L98.2208364,6.535375 C98.2208364,5.3735 97.786097,4.791875 96.9138667,4.791875 C96.2466242,4.791875 95.788497,5.12875 95.5394848,5.8025 C95.4954606,5.944125 95.4720727,6.117375 95.4720727,6.320875 L95.4720727,10.219 L94.0302788,10.219 L94.0302788,0.7645 L95.4720727,0.7645 L95.4720727,4.670875 L95.4995879,4.670875 C95.9535879,3.96 96.6029455,3.60525 97.4476606,3.60525 C98.0447394,3.60525 98.5372606,3.8005 98.9293515,4.192375 C99.4177455,4.6805 99.6626303,5.4065 99.6626303,6.36625 L99.6626303,10.220375 L99.6626303,10.220375 Z" id="Shape"></path>
                <path d="M107.137121,6.672875 C107.137121,6.931375 107.117861,7.148625 107.083467,7.326 L102.759461,7.326 C102.777345,7.96675 102.985085,8.454875 103.38543,8.793125 C103.751382,9.095625 104.221891,9.246875 104.799709,9.246875 C105.440812,9.246875 106.024133,9.145125 106.548297,8.94025 L106.773921,9.94125 C106.160333,10.208 105.435309,10.341375 104.598848,10.341375 C103.594545,10.341375 102.803485,10.04575 102.229794,9.4545 C101.656103,8.86325 101.369945,8.069875 101.369945,7.074375 C101.369945,6.09675 101.635467,5.28275 102.170636,4.63375 C102.73057,3.94075 103.485861,3.59425 104.437885,3.59425 C105.372024,3.59425 106.079164,3.94075 106.559303,4.63375 C106.944515,5.18375 107.137121,5.864375 107.137121,6.672875 Z M105.761364,6.30025 C105.770994,5.872625 105.676067,5.504125 105.482085,5.193375 C105.231697,4.79325 104.850612,4.5925 104.334703,4.5925 C103.862818,4.5925 103.480358,4.78775 103.185945,5.179625 C102.946564,5.49175 102.804861,5.864375 102.759461,6.30025 L105.761364,6.30025 Z" id="Shape"></path>
            </g>
        </g>
    </g>
</svg>
